<?xml version="1.0" standalone="no"?>
<!DOCTYPE svg PUBLIC "-//W3C//DTD SVG 20010904//EN"
 "http://www.w3.org/TR/2001/REC-SVG-20010904/DTD/svg10.dtd">
<svg version="1.0" xmlns="http://www.w3.org/2000/svg"
 width="616.000000pt" height="616.000000pt" viewBox="0 0 616.000000 616.000000"
 preserveAspectRatio="xMidYMid meet">
<metadata>
Created by potrace 1.14, written by Peter Selinger 2001-2017
</metadata>
<g transform="translate(0.000000,616.000000) scale(0.100000,-0.100000)"
fill="#000000" stroke="none">
<path d="M1863 4950 c-664 -664 -1218 -1219 -1230 -1231 l-22 -24 185 1 c101
0 184 -1 184 -4 0 -2 -135 -140 -301 -305 l-300 -301 311 -311 312 -312 -187
1 c-103 1 -190 -1 -193 -4 -4 -3 546 -557 1221 -1232 l1228 -1226 1229 1229
c676 676 1226 1230 1222 1232 -4 1 -89 2 -189 2 -101 -1 -183 1 -183 4 0 3
138 144 306 312 l307 307 -284 284 c-156 156 -292 293 -302 305 l-17 20 185
-1 c102 -1 185 0 185 1 0 1 -553 555 -1230 1231 l-1229 1230 -1208 -1208z
m2317 -45 l1105 -1105 -118 0 -118 0 -989 989 -990 989 -989 -989 -988 -989
-119 0 -118 0 1105 1105 c607 607 1106 1105 1109 1105 3 0 502 -497 1110
-1105z m618 -1103 l-102 -3 -812 812 -813 813 -812 -812 -812 -812 -105 0
-106 0 917 917 918 917 914 -914 915 -915 -102 -3z m-3481 -130 c-12 -13 -149
-151 -304 -306 l-282 -282 304 -304 c168 -168 305 -307 305 -311 0 -3 -43 -5
-96 -5 l-97 0 -308 309 c-170 169 -309 311 -309 314 0 4 135 142 301 308 l300
300 105 1 104 0 -23 -24z m3993 -277 c165 -165 300 -304 300 -308 0 -5 -138
-146 -307 -315 l-307 -307 -93 -1 c-51 -1 -95 1 -97 5 -3 3 133 143 300 311
l304 304 -305 306 -306 306 105 0 106 -1 300 -300z m-3225 -2015 c539 -539
983 -979 988 -977 4 1 447 442 985 980 l978 978 122 -3 122 -3 -1105 -1105
-1104 -1104 -1108 1107 -1107 1107 125 0 124 0 980 -980z m175 175 c443 -443
809 -804 813 -802 5 1 370 363 811 805 l802 802 103 0 103 0 -911 -910 -911
-909 -905 905 c-498 498 -905 907 -905 910 0 2 44 4 98 4 l97 0 805 -805z"/>
</g>
</svg>
