<svg width="60" height="60" viewBox="0 0 107 107" fill="none" xmlns="http://www.w3.org/2000/svg">
<path d="M107 53.5C107 83.0472 83.0472 107 53.5 107C23.9528 107 0 83.0472 0 53.5C0 23.9528 23.9528 0 53.5 0C83.0472 0 107 23.9528 107 53.5Z" fill="white" fill-opacity="0.85"/>
<path d="M62.7188 53.5C62.7188 55.945 61.7475 58.2898 60.0186 60.0186C58.2898 61.7475 55.945 62.7188 53.5 62.7188C51.055 62.7188 48.7102 61.7475 46.9814 60.0186C45.2525 58.2898 44.2812 55.945 44.2812 53.5C44.2812 51.055 45.2525 48.7102 46.9814 46.9814C48.7102 45.2525 51.055 44.2812 53.5 44.2812C55.945 44.2812 58.2898 45.2525 60.0186 46.9814C61.7475 48.7102 62.7188 51.055 62.7188 53.5Z" fill="#009EE3"/>
<path d="M24 53.5C24 53.5 35.0625 33.2188 53.5 33.2188C71.9375 33.2188 83 53.5 83 53.5C83 53.5 71.9375 73.7812 53.5 73.7812C35.0625 73.7812 24 53.5 24 53.5ZM53.5 66.4062C56.923 66.4062 60.2057 65.0465 62.6261 62.6261C65.0465 60.2057 66.4062 56.923 66.4062 53.5C66.4062 50.077 65.0465 46.7943 62.6261 44.3739C60.2057 41.9535 56.923 40.5938 53.5 40.5938C50.077 40.5938 46.7943 41.9535 44.3739 44.3739C41.9535 46.7943 40.5938 50.077 40.5938 53.5C40.5938 56.923 41.9535 60.2057 44.3739 62.6261C46.7943 65.0465 50.077 66.4062 53.5 66.4062Z" fill="#009EE3"/>
</svg>
